<?xml version="1.0" standalone="no"?>
<!DOCTYPE svg PUBLIC "-//W3C//DTD SVG 20010904//EN"
 "http://www.w3.org/TR/2001/REC-SVG-20010904/DTD/svg10.dtd">
<svg version="1.0" xmlns="http://www.w3.org/2000/svg"
 width="300.000000pt" height="300.000000pt" viewBox="0 0 300.000000 300.000000"
 preserveAspectRatio="xMidYMid meet">
<metadata>
Created by potrace 1.16, written by Peter Selinger 2001-2019
</metadata>
<g transform="translate(0.000000,300.000000) scale(0.100000,-0.100000)"
fill="#000000" stroke="none">
<path d="M1155 2926 c-114 -22 -192 -45 -299 -87 -120 -47 -235 -108 -250
-131 -19 -31 4 -39 64 -23 30 8 100 21 155 30 55 9 144 31 199 51 118 41 263
68 323 59 64 -9 97 -48 132 -158 54 -171 59 -241 17 -269 -23 -16 -70 -7 -103
18 l-35 26 6 -53 c3 -30 8 -144 11 -254 25 -878 77 -2056 90 -2043 12 12 51
912 91 2083 13 394 19 493 30 505 11 11 43 16 125 18 137 5 218 -17 306 -81
70 -52 143 -155 173 -245 27 -82 37 -222 20 -293 -36 -156 -163 -287 -318
-329 -24 -6 -77 -14 -118 -18 -41 -4 -74 -11 -74 -17 0 -17 172 -17 247 0 201
47 372 197 432 378 89 270 6 510 -212 612 -111 52 -195 65 -430 65 -215 0
-227 2 -227 47 0 38 -26 90 -52 104 -33 18 -219 21 -303 5z"/>
<path d="M1145 2760 c-145 -38 -334 -130 -480 -235 -99 -70 -125 -99 -107
-117 8 -8 39 0 114 30 201 80 417 117 550 94 81 -14 146 -40 190 -77 16 -14
38 -25 49 -25 15 0 19 7 19 38 0 84 -67 284 -101 302 -29 16 -158 10 -234 -10z"/>
</g>
</svg>
